<svg width="134" height="40" viewBox="0 0 134 40" fill="none" xmlns="http://www.w3.org/2000/svg">
<rect width="133.125" height="40" rx="6.25" fill="#FAF9F9"/>
<path d="M43.1409 8.01947V14.625H45.361C47.3248 14.625 48.4784 13.4028 48.4784 11.3199C48.4784 9.2417 47.3203 8.01947 45.361 8.01947H43.1409ZM43.9648 8.76105H45.3061C46.8076 8.76105 47.6361 9.67657 47.6361 11.3291C47.6361 12.9679 46.803 13.8834 45.3061 13.8834H43.9648V8.76105ZM50.1714 14.625H50.9679V9.86426H50.1714V14.625ZM50.5696 9.0174C50.8489 9.0174 51.0686 8.79309 51.0686 8.51843C51.0686 8.2392 50.8489 8.01947 50.5696 8.01947C50.295 8.01947 50.0707 8.2392 50.0707 8.51843C50.0707 8.79309 50.295 9.0174 50.5696 9.0174ZM52.7112 11.178C52.7112 11.8647 53.1461 12.2812 54.0433 12.4964L54.7986 12.6795C55.3434 12.8123 55.5311 13.0091 55.5311 13.3524C55.5311 13.7827 55.1328 14.0574 54.4874 14.0574C53.8419 14.0574 53.4757 13.7964 53.3796 13.2517H52.5831C52.6746 14.1443 53.3704 14.7074 54.4874 14.7074C55.5494 14.7074 56.3322 14.1215 56.3322 13.2929C56.3322 12.6108 55.9843 12.2355 55.0229 12.002L54.2676 11.8189C53.7366 11.6907 53.494 11.4664 53.494 11.1368C53.494 10.7203 53.8785 10.4319 54.4599 10.4319C55.0458 10.4319 55.412 10.7386 55.4716 11.2375H56.2314C56.1994 10.3953 55.5036 9.78186 54.4599 9.78186C53.4299 9.78186 52.7112 10.3632 52.7112 11.178ZM60.2224 9.78186C59.5312 9.78186 58.9773 10.1343 58.6843 10.6699H58.666V9.86426H57.9107V16.2134H58.7072V13.8514H58.7255C59.0093 14.3732 59.5587 14.7074 60.2407 14.7074C61.4401 14.7074 62.2595 13.7369 62.2595 12.2446C62.2595 10.7523 61.4355 9.78186 60.2224 9.78186ZM60.0668 14.007C59.252 14.007 58.7026 13.3066 58.7026 12.2446C58.7026 11.1872 59.252 10.4822 60.0668 10.4822C60.9136 10.4822 61.4446 11.1689 61.4446 12.2446C61.4446 13.325 60.9136 14.007 60.0668 14.007ZM65.7881 14.7074C67.1019 14.7074 67.9899 13.7598 67.9899 12.2446C67.9899 10.7249 67.1019 9.78186 65.7881 9.78186C64.4697 9.78186 63.5817 10.7249 63.5817 12.2446C63.5817 13.7598 64.4697 14.7074 65.7881 14.7074ZM65.7881 14.007C64.9458 14.007 64.3919 13.3661 64.3919 12.2446C64.3919 11.1231 64.9458 10.4822 65.7881 10.4822C66.6304 10.4822 67.1797 11.1231 67.1797 12.2446C67.1797 13.3661 66.6304 14.007 65.7881 14.007ZM69.5456 14.625H70.3421V11.8235C70.3421 11.0178 70.8319 10.4868 71.5826 10.4868C72.3151 10.4868 72.6767 10.908 72.6767 11.677V14.625H73.4732V11.5351C73.4732 10.4548 72.869 9.78186 71.8253 9.78186C71.0883 9.78186 70.5801 10.1115 70.3146 10.6241H70.2963V9.86426H69.5456V14.625ZM75.2806 14.625H76.0771V9.86426H75.2806V14.625ZM75.6789 9.0174C75.9581 9.0174 76.1779 8.79309 76.1779 8.51843C76.1779 8.2392 75.9581 8.01947 75.6789 8.01947C75.4042 8.01947 75.1799 8.2392 75.1799 8.51843C75.1799 8.79309 75.4042 9.0174 75.6789 9.0174ZM80.2695 14.7074C81.4872 14.7074 82.2928 13.7415 82.2928 12.2446C82.2928 10.7523 81.4826 9.78186 80.2833 9.78186C79.6104 9.78186 79.0565 10.116 78.7589 10.6608H78.7406V8.01947H77.9441V14.625H78.704V13.8193H78.7223C79.029 14.3687 79.5737 14.7074 80.2695 14.7074ZM80.1139 10.4822C80.9562 10.4822 81.478 11.1643 81.478 12.2446C81.478 13.3341 80.9562 14.007 80.1139 14.007C79.3082 14.007 78.736 13.3066 78.736 12.2446C78.736 11.1872 79.3082 10.4822 80.1139 10.4822ZM83.8943 14.625H84.6908V8.01947H83.8943V14.625ZM88.4254 10.4731C89.1761 10.4731 89.6751 11.0407 89.6934 11.8372H87.1071C87.1574 11.0453 87.6793 10.4731 88.4254 10.4731ZM89.6751 13.2609C89.5424 13.7095 89.0983 14.0162 88.4941 14.0162C87.6381 14.0162 87.1025 13.4165 87.1025 12.5056V12.4598H90.5174V12.1577C90.5174 10.7157 89.7255 9.78186 88.4391 9.78186C87.1254 9.78186 86.2831 10.7844 86.2831 12.2629C86.2831 13.7598 87.1116 14.7074 88.4758 14.7074C89.5149 14.7074 90.3206 14.094 90.4579 13.2609H89.6751ZM96.6545 10.4731C97.4053 10.4731 97.9042 11.0407 97.9225 11.8372H95.3362C95.3865 11.0453 95.9084 10.4731 96.6545 10.4731ZM97.9042 13.2609C97.7715 13.7095 97.3275 14.0162 96.7232 14.0162C95.8672 14.0162 95.3316 13.4165 95.3316 12.5056V12.4598H98.7465V12.1577C98.7465 10.7157 97.9546 9.78186 96.6683 9.78186C95.3545 9.78186 94.5122 10.7844 94.5122 12.2629C94.5122 13.7598 95.3408 14.7074 96.7049 14.7074C97.744 14.7074 98.5497 14.094 98.687 13.2609H97.9042ZM100.302 14.625H101.099V11.8235C101.099 11.0178 101.589 10.4868 102.339 10.4868C103.072 10.4868 103.433 10.908 103.433 11.677V14.625H104.23V11.5351C104.23 10.4548 103.626 9.78186 102.582 9.78186C101.845 9.78186 101.337 10.1115 101.071 10.6241H101.053V9.86426H100.302V14.625Z" fill="black"/>
<path d="M52.0404 31.375H53.7131L49.0048 18.6043H47.4295L42.7213 31.375H44.3939L45.6772 27.7199H50.7571L52.0404 31.375ZM48.1906 20.5425H48.2437L50.2881 26.3658H46.1462L48.1906 20.5425ZM59.4037 22.0116C58.0673 22.0116 56.9965 22.6931 56.4301 23.7285H56.3947V22.1709H54.9344V34.446H56.4743V29.8793H56.5097C57.0584 30.8882 58.1204 31.5343 59.4391 31.5343C61.7578 31.5343 63.342 29.6581 63.342 26.7729C63.342 23.8878 61.749 22.0116 59.4037 22.0116ZM59.1028 30.1802C57.5275 30.1802 56.4655 28.8262 56.4655 26.7729C56.4655 24.7286 57.5275 23.3657 59.1028 23.3657C60.7401 23.3657 61.7667 24.6932 61.7667 26.7729C61.7667 28.8616 60.7401 30.1802 59.1028 30.1802ZM69.3689 22.0116C68.0325 22.0116 66.9617 22.6931 66.3953 23.7285H66.3599V22.1709H64.8996V34.446H66.4395V29.8793H66.4749C67.0236 30.8882 68.0856 31.5343 69.4043 31.5343C71.723 31.5343 73.3072 29.6581 73.3072 26.7729C73.3072 23.8878 71.7142 22.0116 69.3689 22.0116ZM69.068 30.1802C67.4927 30.1802 66.4307 28.8262 66.4307 26.7729C66.4307 24.7286 67.4927 23.3657 69.068 23.3657C70.7053 23.3657 71.7319 24.6932 71.7319 26.7729C71.7319 28.8616 70.7053 30.1802 69.068 30.1802ZM78.2013 27.95C78.3517 30.1537 80.2103 31.5874 82.998 31.5874C85.8566 31.5874 87.7151 30.1094 87.7151 27.7465C87.7151 25.941 86.662 24.879 83.9981 24.2949L82.5821 23.9852C80.8386 23.6046 80.1572 22.9143 80.1572 21.9054C80.1572 20.6044 81.3873 19.8256 82.9803 19.8256C84.6442 19.8256 85.7504 20.6841 85.892 22.0824H87.485C87.4142 19.9141 85.5734 18.3919 83.0246 18.3919C80.3784 18.3919 78.5199 19.8699 78.5199 21.9762C78.5199 23.7905 79.6262 24.9498 82.1838 25.5074L83.5999 25.8171C85.3699 26.2065 86.0779 26.9146 86.0779 27.9854C86.0779 29.2421 84.8212 30.1537 83.0865 30.1537C81.2546 30.1537 79.9802 29.3218 79.7943 27.95H78.2013ZM89.8392 19.9495V22.1709H88.4674V23.4365H89.8392V28.9855C89.8392 30.7555 90.4941 31.4458 92.1844 31.4458C92.5473 31.4458 92.9721 31.4193 93.158 31.375V30.0829C93.0518 30.1006 92.6978 30.1271 92.5208 30.1271C91.7331 30.1271 91.3791 29.7466 91.3791 28.9058V23.4365H93.1668V22.1709H91.3791V19.9495H89.8392ZM98.3618 31.5343C100.902 31.5343 102.619 29.7023 102.619 26.7729C102.619 23.8347 100.902 22.0116 98.3618 22.0116C95.813 22.0116 94.0961 23.8347 94.0961 26.7729C94.0961 29.7023 95.813 31.5343 98.3618 31.5343ZM98.3618 30.1802C96.7334 30.1802 95.6625 28.9412 95.6625 26.7729C95.6625 24.6047 96.7334 23.3657 98.3618 23.3657C99.9902 23.3657 101.052 24.6047 101.052 26.7729C101.052 28.9412 99.9902 30.1802 98.3618 30.1802ZM104.176 31.375H105.716V25.6401C105.716 24.3392 106.495 23.4807 107.69 23.4807C108.062 23.4807 108.389 23.525 108.513 23.5692V22.0735C108.389 22.0558 108.159 22.0116 107.893 22.0116C106.814 22.0116 105.964 22.6577 105.663 23.6754H105.628V22.1709H104.176V31.375ZM113.018 23.348C114.469 23.348 115.434 24.4454 115.469 25.9853H110.469C110.566 24.4542 111.575 23.348 113.018 23.348ZM115.434 28.7377C115.177 29.605 114.319 30.1979 113.15 30.1979C111.495 30.1979 110.46 29.0386 110.46 27.2774V27.1889H117.062V26.6048C117.062 23.817 115.531 22.0116 113.044 22.0116C110.504 22.0116 108.876 23.9498 108.876 26.8083C108.876 29.7023 110.478 31.5343 113.115 31.5343C115.124 31.5343 116.682 30.3484 116.947 28.7377H115.434Z" fill="black"/>
<path fill-rule="evenodd" clip-rule="evenodd" d="M26.4509 6.87495C25.1289 6.93022 23.5271 7.75285 22.5791 8.85884C21.7269 9.84103 20.983 11.4086 21.1835 12.9116C22.6594 13.0267 24.1633 12.1647 25.0821 11.0581C25.999 9.9496 26.6198 8.41121 26.4509 6.87495ZM26.0772 33.0322C27.8683 32.999 29.0028 31.4121 30.0995 29.8154C31.3012 28.0664 31.8319 26.3707 31.911 26.1178C31.9154 26.1037 31.9184 26.0942 31.9201 26.0892C31.9193 26.0889 31.9171 26.088 31.9135 26.0865C31.7412 26.0168 28.4259 24.674 28.393 20.7927C28.3606 17.5876 30.9264 15.9932 31.2089 15.8176C31.2187 15.8115 31.2258 15.8072 31.2299 15.8045C29.6855 13.5546 27.2807 13.2461 26.4238 13.2108C25.1722 13.0848 23.9579 13.5614 22.9658 13.9508C22.3353 14.1982 21.7946 14.4105 21.3909 14.4105C20.9417 14.4105 20.3861 14.1908 19.7626 13.9443C18.9465 13.6217 18.014 13.253 17.0514 13.2707C14.8217 13.3039 12.7641 14.5634 11.6158 16.5539C9.29695 20.5621 11.0211 26.5015 13.2802 29.7515C14.3859 31.341 15.7008 33.1299 17.4299 33.0655C18.202 33.0346 18.7515 32.8015 19.3197 32.5605C19.9765 32.2819 20.6583 31.9927 21.7378 31.9927C22.766 31.9927 23.4162 32.273 24.0417 32.5426C24.6399 32.8004 25.2154 33.0485 26.0772 33.0322Z" fill="black"/>
</svg>
