<svg width="24" height="24" viewBox="0 0 24 24" fill="none" xmlns="http://www.w3.org/2000/svg">
<path d="M17.625 0.75H6.375C5.77843 0.75053 5.20644 0.987753 4.78459 1.40959C4.36275 1.83144 4.12553 2.40343 4.125 3V21.75C4.12553 22.1477 4.28373 22.5289 4.56492 22.8101C4.84611 23.0913 5.22734 23.2495 5.625 23.25H18.375C18.7727 23.2495 19.1539 23.0913 19.4351 22.8101C19.7163 22.5289 19.8745 22.1477 19.875 21.75V3C19.8745 2.40343 19.6372 1.83144 19.2154 1.40959C18.7936 0.987753 18.2216 0.75053 17.625 0.75ZM18.375 21.75H5.625V11.25H18.375V21.75ZM18.375 9.75H5.625V3C5.625 2.80109 5.70402 2.61032 5.84467 2.46967C5.98532 2.32902 6.17609 2.25 6.375 2.25H17.625C17.8239 2.25 18.0147 2.32902 18.1553 2.46967C18.296 2.61032 18.375 2.80109 18.375 3V9.75Z" fill="#555B6E"/>
<path d="M6.75 13.125H8.25V17.625H6.75V13.125Z" fill="#555B6E"/>
<path d="M6.75 4.875H8.25V7.875H6.75V4.875Z" fill="#555B6E"/>
</svg>
