<svg width="134" height="40" viewBox="0 0 134 40" fill="none" xmlns="http://www.w3.org/2000/svg">
<rect width="133.125" height="40" rx="6.25" fill="#FAF9F9"/>
<path d="M43.8535 14V7.33496H45.735C46.3148 7.33496 46.8275 7.46313 47.273 7.71948C47.7186 7.97583 48.0619 8.34052 48.303 8.81354C48.5471 9.28656 48.6707 9.82977 48.6738 10.4432V10.8689C48.6738 11.4976 48.5517 12.0484 48.3076 12.5214C48.0665 12.9944 47.7201 13.3576 47.2685 13.6109C46.8199 13.8642 46.2965 13.9939 45.6983 14H43.8535ZM44.7325 8.05823V13.2813H45.6571C46.3346 13.2813 46.8611 13.0707 47.2364 12.6496C47.6148 12.2285 47.804 11.6288 47.804 10.8506V10.4615C47.804 9.70465 47.6255 9.11719 47.2685 8.6991C46.9145 8.27795 46.4109 8.06433 45.7578 8.05823H44.7325ZM51.5432 14H50.6964V9.047H51.5432V14ZM50.6277 7.73322C50.6277 7.59589 50.6689 7.47992 50.7513 7.38531C50.8368 7.29071 50.9619 7.24341 51.1267 7.24341C51.2915 7.24341 51.4166 7.29071 51.502 7.38531C51.5875 7.47992 51.6302 7.59589 51.6302 7.73322C51.6302 7.87054 51.5875 7.98499 51.502 8.07654C51.4166 8.16809 51.2915 8.21387 51.1267 8.21387C50.9619 8.21387 50.8368 8.16809 50.7513 8.07654C50.6689 7.98499 50.6277 7.87054 50.6277 7.73322ZM56.5367 12.6862C56.5367 12.4573 56.4497 12.2803 56.2758 12.1552C56.1049 12.027 55.8043 11.9172 55.374 11.8256C54.9467 11.7341 54.6065 11.6242 54.3532 11.496C54.1029 11.3679 53.9168 11.2153 53.7947 11.0383C53.6757 10.8613 53.6162 10.6507 53.6162 10.4066C53.6162 10.0007 53.7871 9.65735 54.1289 9.37659C54.4737 9.09583 54.9132 8.95544 55.4472 8.95544C56.0088 8.95544 56.4635 9.1004 56.8114 9.39032C57.1623 9.68024 57.3378 10.051 57.3378 10.5027H56.4864C56.4864 10.2708 56.3872 10.0709 56.1888 9.90302C55.9935 9.73517 55.7463 9.65125 55.4472 9.65125C55.139 9.65125 54.8979 9.71838 54.724 9.85266C54.55 9.98694 54.463 10.1624 54.463 10.3791C54.463 10.5836 54.5439 10.7377 54.7057 10.8414C54.8674 10.9452 55.1588 11.0444 55.58 11.139C56.0042 11.2336 56.3475 11.3465 56.61 11.4777C56.8724 11.6089 57.0662 11.7676 57.1913 11.9538C57.3195 12.1369 57.3836 12.3612 57.3836 12.6267C57.3836 13.0692 57.2066 13.4247 56.8526 13.6933C56.4986 13.9588 56.0393 14.0916 55.4747 14.0916C55.078 14.0916 54.727 14.0214 54.4218 13.881C54.1167 13.7406 53.8771 13.5453 53.7032 13.295C53.5323 13.0417 53.4468 12.7686 53.4468 12.4756H54.2937C54.3089 12.7595 54.4218 12.9853 54.6324 13.1531C54.846 13.3179 55.1268 13.4003 55.4747 13.4003C55.7951 13.4003 56.0515 13.3362 56.2437 13.2081C56.4391 13.0768 56.5367 12.9029 56.5367 12.6862ZM63.4207 11.5784C63.4207 12.3322 63.2483 12.9395 62.9035 13.4003C62.5586 13.8611 62.0917 14.0916 61.5027 14.0916C60.9015 14.0916 60.4285 13.9008 60.0836 13.5193V15.9043H59.2368V9.047H60.0104L60.0516 9.59631C60.3965 9.16907 60.8756 8.95544 61.489 8.95544C62.0841 8.95544 62.554 9.17975 62.8989 9.62836C63.2468 10.077 63.4207 10.701 63.4207 11.5006V11.5784ZM62.5739 11.4823C62.5739 10.9238 62.4549 10.4828 62.2168 10.1594C61.9788 9.83588 61.6523 9.67413 61.2372 9.67413C60.7245 9.67413 60.34 9.90149 60.0836 10.3562V12.7228C60.3369 13.1745 60.7245 13.4003 61.2464 13.4003C61.6523 13.4003 61.9742 13.2401 62.2122 12.9197C62.4533 12.5962 62.5739 12.1171 62.5739 11.4823ZM65.0268 11.4777C65.0268 10.9925 65.1214 10.5561 65.3106 10.1685C65.5028 9.78094 65.7683 9.48187 66.1071 9.2713C66.4489 9.06073 66.838 8.95544 67.2744 8.95544C67.9488 8.95544 68.4936 9.1889 68.9086 9.65582C69.3267 10.1227 69.5357 10.7438 69.5357 11.5189V11.5784C69.5357 12.0606 69.4427 12.494 69.2565 12.8785C69.0734 13.2599 68.8094 13.5575 68.4646 13.7711C68.1228 13.9847 67.7291 14.0916 67.2835 14.0916C66.6122 14.0916 66.0674 13.8581 65.6493 13.3912C65.2343 12.9243 65.0268 12.3063 65.0268 11.5372V11.4777ZM65.8782 11.5784C65.8782 12.1277 66.0049 12.5687 66.2581 12.9014C66.5145 13.234 66.8563 13.4003 67.2835 13.4003C67.7138 13.4003 68.0556 13.2325 68.3089 12.8968C68.5622 12.558 68.6889 12.085 68.6889 11.4777C68.6889 10.9345 68.5592 10.4951 68.2998 10.1594C68.0434 9.82062 67.7016 9.65125 67.2744 9.65125C66.8563 9.65125 66.5191 9.81757 66.2627 10.1502C66.0064 10.4828 65.8782 10.9589 65.8782 11.5784ZM72.1488 9.047L72.1763 9.66956C72.5547 9.19348 73.0491 8.95544 73.6595 8.95544C74.7062 8.95544 75.2342 9.54596 75.2433 10.727V14H74.3965V10.7224C74.3934 10.3654 74.311 10.1014 74.1493 9.93048C73.9906 9.75958 73.7419 9.67413 73.4031 9.67413C73.1284 9.67413 72.8874 9.74738 72.6798 9.89386C72.4723 10.0403 72.3106 10.2326 72.1946 10.4706V14H71.3477V9.047H72.1488ZM78.1906 14H77.3437V9.047H78.1906V14ZM77.2751 7.73322C77.2751 7.59589 77.3163 7.47992 77.3987 7.38531C77.4841 7.29071 77.6092 7.24341 77.774 7.24341C77.9388 7.24341 78.0639 7.29071 78.1494 7.38531C78.2348 7.47992 78.2776 7.59589 78.2776 7.73322C78.2776 7.87054 78.2348 7.98499 78.1494 8.07654C78.0639 8.16809 77.9388 8.21387 77.774 8.21387C77.6092 8.21387 77.4841 8.16809 77.3987 8.07654C77.3163 7.98499 77.2751 7.87054 77.2751 7.73322ZM84.4933 11.5784C84.4933 12.3353 84.3193 12.9441 83.9714 13.4049C83.6235 13.8627 83.1566 14.0916 82.5706 14.0916C81.945 14.0916 81.4613 13.8703 81.1195 13.4278L81.0783 14H80.3001V6.96875H81.147V9.59174C81.4888 9.16754 81.9603 8.95544 82.5615 8.95544C83.1627 8.95544 83.6342 9.1828 83.976 9.63751C84.3208 10.0922 84.4933 10.7148 84.4933 11.5052V11.5784ZM83.6464 11.4823C83.6464 10.9055 83.535 10.46 83.3122 10.1456C83.0894 9.8313 82.769 9.67413 82.3509 9.67413C81.7924 9.67413 81.3911 9.93353 81.147 10.4523V12.5947C81.4064 13.1135 81.8108 13.3729 82.3601 13.3729C82.766 13.3729 83.0818 13.2157 83.3076 12.9014C83.5335 12.587 83.6464 12.114 83.6464 11.4823ZM87.2345 14H86.3877V6.96875H87.2345V14ZM91.3994 14.0916C90.7281 14.0916 90.1818 13.8718 89.7607 13.4324C89.3395 12.9899 89.1289 12.3994 89.1289 11.6608V11.5052C89.1289 11.0139 89.222 10.5759 89.4082 10.1914C89.5974 9.80383 89.8598 9.50171 90.1955 9.28503C90.5343 9.06531 90.9005 8.95544 91.2942 8.95544C91.9381 8.95544 92.4386 9.16754 92.7956 9.59174C93.1527 10.0159 93.3312 10.6232 93.3312 11.4136V11.7661H89.9758C89.988 12.2544 90.1299 12.6496 90.4015 12.9517C90.6762 13.2508 91.0241 13.4003 91.4452 13.4003C91.7443 13.4003 91.9976 13.3393 92.2051 13.2172C92.4126 13.0952 92.5942 12.9334 92.7498 12.732L93.2671 13.1348C92.8521 13.7726 92.2295 14.0916 91.3994 14.0916ZM91.2942 9.65125C90.9524 9.65125 90.6655 9.77637 90.4336 10.0266C90.2016 10.2738 90.0582 10.6217 90.0033 11.0703H92.4843V11.0062C92.4599 10.5759 92.344 10.2433 92.1364 10.0083C91.9289 9.77026 91.6482 9.65125 91.2942 9.65125ZM100.196 14.0916C99.5248 14.0916 98.9785 13.8718 98.5574 13.4324C98.1363 12.9899 97.9257 12.3994 97.9257 11.6608V11.5052C97.9257 11.0139 98.0188 10.5759 98.2049 10.1914C98.3941 9.80383 98.6566 9.50171 98.9923 9.28503C99.331 9.06531 99.6972 8.95544 100.091 8.95544C100.735 8.95544 101.235 9.16754 101.592 9.59174C101.949 10.0159 102.128 10.6232 102.128 11.4136V11.7661H98.7726C98.7848 12.2544 98.9267 12.6496 99.1983 12.9517C99.4729 13.2508 99.8208 13.4003 100.242 13.4003C100.541 13.4003 100.794 13.3393 101.002 13.2172C101.209 13.0952 101.391 12.9334 101.547 12.732L102.064 13.1348C101.649 13.7726 101.026 14.0916 100.196 14.0916ZM100.091 9.65125C99.7491 9.65125 99.4622 9.77637 99.2303 10.0266C98.9984 10.2738 98.8549 10.6217 98.8 11.0703H101.281V11.0062C101.257 10.5759 101.141 10.2433 100.933 10.0083C100.726 9.77026 100.445 9.65125 100.091 9.65125ZM104.663 9.047L104.691 9.66956C105.069 9.19348 105.564 8.95544 106.174 8.95544C107.221 8.95544 107.749 9.54596 107.758 10.727V14H106.911V10.7224C106.908 10.3654 106.825 10.1014 106.664 9.93048C106.505 9.75958 106.256 9.67413 105.918 9.67413C105.643 9.67413 105.402 9.74738 105.194 9.89386C104.987 10.0403 104.825 10.2326 104.709 10.4706V14H103.862V9.047H104.663Z" fill="black"/>
<path d="M92.0986 27.4463V31.5H91.2578V21.5469H94.6484C95.6829 21.5469 96.4987 21.8112 97.0957 22.3398C97.6973 22.8685 97.998 23.5954 97.998 24.5205C97.998 25.4548 97.7087 26.1771 97.1299 26.6875C96.5557 27.1934 95.7217 27.4463 94.6279 27.4463H92.0986ZM92.0986 26.7354H94.6484C95.4642 26.7354 96.0863 26.5417 96.5146 26.1543C96.943 25.7669 97.1572 25.2269 97.1572 24.5342C97.1572 23.846 96.943 23.2992 96.5146 22.8936C96.0908 22.4834 95.487 22.2738 94.7031 22.2646H92.0986V26.7354ZM100.609 31.5H99.7891V21H100.609V31.5ZM107.507 31.5C107.425 31.2676 107.372 30.9235 107.35 30.4678C107.062 30.8415 106.696 31.1309 106.249 31.3359C105.807 31.5365 105.338 31.6367 104.841 31.6367C104.13 31.6367 103.553 31.4385 103.111 31.042C102.674 30.6455 102.455 30.1442 102.455 29.5381C102.455 28.818 102.754 28.2484 103.351 27.8291C103.952 27.4098 104.788 27.2002 105.859 27.2002H107.343V26.3594C107.343 25.8307 107.179 25.416 106.851 25.1152C106.527 24.8099 106.053 24.6572 105.429 24.6572C104.859 24.6572 104.387 24.8031 104.014 25.0947C103.64 25.3864 103.453 25.7373 103.453 26.1475L102.633 26.1406C102.633 25.5527 102.906 25.0446 103.453 24.6162C104 24.1833 104.672 23.9668 105.47 23.9668C106.295 23.9668 106.944 24.1742 107.418 24.5889C107.896 24.999 108.143 25.5732 108.156 26.3115V29.8115C108.156 30.527 108.231 31.0625 108.382 31.418V31.5H107.507ZM104.937 30.9121C105.483 30.9121 105.971 30.7799 106.399 30.5156C106.832 30.2513 107.147 29.8981 107.343 29.4561V27.8291H105.88C105.064 27.8382 104.426 27.9886 103.966 28.2803C103.506 28.5674 103.275 28.9639 103.275 29.4697C103.275 29.8844 103.428 30.2285 103.733 30.502C104.043 30.7754 104.444 30.9121 104.937 30.9121ZM112.579 30.3242L114.739 24.1035H115.621L112.463 32.7578L112.299 33.1406C111.893 34.0384 111.267 34.4873 110.419 34.4873C110.223 34.4873 110.013 34.4554 109.79 34.3916L109.783 33.7148L110.207 33.7559C110.608 33.7559 110.932 33.6556 111.178 33.4551C111.428 33.2591 111.64 32.9196 111.813 32.4365L112.176 31.4385L109.387 24.1035H110.282L112.579 30.3242Z" fill="black"/>
<path fill-rule="evenodd" clip-rule="evenodd" d="M10 9.21269V30.7898C10 31.5408 10.4342 32.1902 11.065 32.5L23.5513 19.9976L11.07 7.5C10.4365 7.80888 10 8.45974 10 9.21269ZM13.8635 31.8519L27.5111 23.9623L24.627 21.0745L13.8635 31.8519ZM31.7533 18.4886C32.2072 18.8365 32.5 19.3847 32.5 20.0013C32.5 20.6086 32.2161 21.1494 31.7738 21.4979L28.8749 23.1739L25.7026 19.9976L28.8727 16.8233L31.7533 18.4886ZM27.5089 16.0349L13.8715 8.15119L24.627 18.9205L27.5089 16.0349Z" fill="black"/>
<path d="M85.6295 28.556L86.8501 29.3451C86.454 29.9109 85.5064 30.8817 83.8682 30.8817C81.8339 30.8817 80.3189 29.3555 80.3189 27.4139C80.3189 25.3478 81.8499 23.9462 83.6969 23.9462C85.5545 23.9462 86.4646 25.3789 86.7591 26.1524L86.9197 26.547L82.1337 28.4677C82.4977 29.1634 83.0653 29.5164 83.8682 29.5164C84.6713 29.5164 85.228 29.1322 85.6295 28.556V28.556ZM81.8768 27.305L85.0728 26.0175C84.8961 25.5867 84.3715 25.2804 83.745 25.2804C82.9474 25.2804 81.8393 25.9657 81.8768 27.305Z" fill="black"/>
<path d="M78.0115 20.4109H79.5533V30.5651H78.0115V20.4108V20.4109Z" fill="black"/>
<path d="M75.581 24.2161H77.0693V30.3833C77.0693 32.9426 75.5114 33.9964 73.6698 33.9964C71.9353 33.9964 70.8914 32.8648 70.5006 31.9459L71.8657 31.3956C72.1119 31.9614 72.7062 32.6312 73.6698 32.6312C74.8529 32.6312 75.581 31.9199 75.581 30.591V30.0927H75.5275C75.1741 30.5079 74.4996 30.8817 73.6431 30.8817C71.855 30.8817 70.2167 29.371 70.2167 27.4243C70.2167 25.4672 71.855 23.941 73.6431 23.941C74.4943 23.941 75.1741 24.3096 75.5275 24.7145H75.581V24.2162V24.2161ZM75.688 27.4243C75.688 26.1992 74.8476 25.3063 73.7769 25.3063C72.6954 25.3063 71.7854 26.1992 71.7854 27.4243C71.7854 28.6338 72.6954 29.5112 73.7769 29.5112C74.8476 29.5164 75.6881 28.6338 75.6881 27.4243H75.688Z" fill="black"/>
<path d="M61.7529 27.3983C61.7529 29.397 60.1469 30.8661 58.1768 30.8661C56.2068 30.8661 54.6007 29.3918 54.6007 27.3983C54.6007 25.3893 56.2068 23.9254 58.1768 23.9254C60.1469 23.9254 61.7529 25.3893 61.7529 27.3983ZM60.1897 27.3983C60.1897 26.1525 59.2582 25.2958 58.1768 25.2958C57.0955 25.2958 56.1639 26.1525 56.1639 27.3983C56.1639 28.6338 57.0955 29.5008 58.1768 29.5008C59.2583 29.5008 60.1897 28.6338 60.1897 27.3983Z" fill="black"/>
<path d="M69.5637 27.4139C69.5637 29.4126 67.9576 30.8817 65.9876 30.8817C64.0175 30.8817 62.4115 29.4125 62.4115 27.4139C62.4115 25.4049 64.0175 23.9462 65.9876 23.9462C67.9576 23.9462 69.5637 25.3998 69.5637 27.4139V27.4139ZM67.9951 27.4139C67.9951 26.1681 67.0636 25.3114 65.9822 25.3114C64.9008 25.3114 63.9693 26.1681 63.9693 27.4139C63.9693 28.6494 64.9008 29.5164 65.9822 29.5164C67.0689 29.5164 67.9951 28.6442 67.9951 27.4139Z" fill="black"/>
<path d="M48.7226 29.3607C46.4794 29.3607 44.7236 27.606 44.7236 25.4308C44.7236 23.2557 46.4794 21.5011 48.7226 21.5011C49.9325 21.5011 50.8158 21.9631 51.4689 22.5549L52.545 21.5115C51.6349 20.6653 50.4197 20.0215 48.7226 20.0215C45.6497 20.0216 43.0639 22.4512 43.0639 25.4308C43.0639 28.4107 45.6497 30.8402 48.7226 30.8402C50.3822 30.8402 51.6349 30.3107 52.6146 29.3243C53.621 28.3483 53.9315 26.9778 53.9315 25.8669C53.9315 25.5191 53.8887 25.1609 53.8405 24.8962H48.7226V26.3393H52.3683C52.2612 27.2427 51.9668 27.8604 51.5332 28.2808C51.0085 28.7948 50.1788 29.3607 48.7226 29.3607V29.3607Z" fill="black"/>
</svg>
