<svg width="12" height="12" viewBox="0 0 12 12" fill="none" xmlns="http://www.w3.org/2000/svg">
<path d="M8.748 7.19137C8.59762 7.11525 7.86525 6.75787 7.72837 6.70687C7.5915 6.65812 7.49212 6.63262 7.39237 6.783C7.29487 6.92962 7.00762 7.26525 6.91987 7.36312C6.83212 7.461 6.74587 7.4685 6.59775 7.40213C6.44737 7.326 5.967 7.16962 5.39663 6.65812C4.95113 6.26175 4.6545 5.7735 4.56637 5.62313C4.47862 5.47463 4.55662 5.39062 4.63088 5.31637C4.69912 5.24813 4.78125 5.14463 4.85738 5.05463C4.92975 4.96462 4.953 4.90425 5.00588 4.80675C5.05463 4.70138 5.0295 4.61925 4.99237 4.545C4.95525 4.47075 4.65637 3.73463 4.5315 3.44138C4.41225 3.15037 4.28737 3.1875 4.1955 3.1875C4.10962 3.17963 4.00988 3.17963 3.9105 3.17963C3.81113 3.17963 3.64875 3.21675 3.51187 3.35925C3.375 3.50962 2.98837 3.86888 2.98837 4.59562C2.98837 5.32425 3.5235 6.02925 3.59775 6.13462C3.67387 6.23212 4.65037 7.73212 6.1485 8.37675C6.50588 8.52712 6.78337 8.61712 7.00012 8.69137C7.3575 8.80462 7.68375 8.78887 7.94137 8.75175C8.22637 8.70487 8.82413 8.39025 8.94938 8.03888C9.0765 7.68525 9.0765 7.39237 9.03938 7.326C9.00225 7.25775 8.90475 7.22062 8.75437 7.15425L8.748 7.19137ZM6.03113 10.875H6.02325C5.13637 10.875 4.25962 10.6346 3.49388 10.1854L3.31425 10.0781L1.43925 10.5664L1.94325 8.742L1.82213 8.5545C1.32692 7.76713 1.06421 6.8559 1.06425 5.92575C1.06425 3.20325 3.29288 0.9825 6.03487 0.9825C7.36313 0.9825 8.60925 1.5 9.54675 2.4375C10.0092 2.89447 10.3761 3.43897 10.6259 4.03922C10.8757 4.63948 11.0035 5.28347 11.0017 5.93363C10.998 8.65425 8.77125 10.875 6.033 10.875H6.03113ZM10.2596 1.72462C9.11887 0.622875 7.61888 0 6.02325 0C2.73225 0 0.0525 2.66812 0.050625 5.94712C0.050625 6.99412 0.324 8.01562 0.8475 8.91975L0 12L3.168 11.1739C4.04562 11.647 5.02659 11.8959 6.02362 11.8984H6.0255C9.31838 11.8984 11.9981 9.23025 12 5.949C12 4.36125 11.3809 2.86687 10.2521 1.74375L10.2596 1.72462Z" fill="#555B6E"/>
</svg>
