<svg width="12" height="12" viewBox="0 0 12 12" fill="none" xmlns="http://www.w3.org/2000/svg">
<path d="M10 5.4995H11C11 2.9345 9.0635 1 6.495 1V2C8.526 2 10 3.4715 10 5.4995Z" fill="#555B6E"/>
<path d="M6.50002 4C7.55152 4 8.00002 4.4485 8.00002 5.5H9.00002C9.00002 3.8875 8.11252 3 6.50002 3V4ZM8.21102 6.7215C8.11494 6.63417 7.98869 6.5876 7.85892 6.59161C7.72915 6.59562 7.60602 6.64991 7.51552 6.743L6.31902 7.9735C6.03102 7.9185 5.45202 7.738 4.85602 7.1435C4.26002 6.547 4.07952 5.9665 4.02602 5.6805L5.25552 4.4835C5.34873 4.39306 5.40309 4.26991 5.4071 4.1401C5.41111 4.01029 5.36446 3.88402 5.27702 3.788L3.42952 1.7565C3.34204 1.66018 3.22046 1.60175 3.0906 1.59363C2.96073 1.5855 2.83282 1.62833 2.73402 1.713L1.64902 2.6435C1.56257 2.73026 1.51098 2.84572 1.50402 2.968C1.49652 3.093 1.35352 6.054 3.64952 8.351C5.65252 10.3535 8.16152 10.5 8.85252 10.5C8.95352 10.5 9.01552 10.497 9.03202 10.496C9.15428 10.4892 9.26968 10.4373 9.35602 10.3505L10.286 9.265C10.3708 9.16626 10.4137 9.03838 10.4056 8.90852C10.3976 8.77866 10.3393 8.65704 10.243 8.5695L8.21102 6.7215Z" fill="#555B6E"/>
</svg>
