<svg width="12" height="12" viewBox="0 0 12 12" fill="none" xmlns="http://www.w3.org/2000/svg">
<path d="M6.01289 0.1875C2.73094 0.1875 0.1875 2.58609 0.1875 5.82586C0.1875 7.52039 0.883828 8.98477 2.01727 9.99633C2.21297 10.1723 2.17266 10.2743 2.20594 11.3611C2.20856 11.4372 2.22976 11.5115 2.26771 11.5776C2.30565 11.6436 2.35918 11.6994 2.42362 11.74C2.48806 11.7806 2.56146 11.8049 2.63741 11.8106C2.71337 11.8163 2.78957 11.8034 2.85938 11.7729C4.09945 11.2268 4.11539 11.1837 4.32562 11.2409C7.91836 12.2297 11.8125 9.93047 11.8125 5.82586C11.8125 2.58609 9.29508 0.1875 6.01289 0.1875ZM9.5107 4.52648L7.79977 7.23516C7.73516 7.33701 7.65021 7.42442 7.55024 7.49191C7.45027 7.5594 7.33744 7.60552 7.21882 7.62737C7.10019 7.64922 6.97834 7.64633 6.86088 7.61889C6.74343 7.59145 6.63291 7.54004 6.53625 7.46789L5.175 6.44906C5.11415 6.40342 5.04013 6.37875 4.96406 6.37875C4.88799 6.37875 4.81398 6.40342 4.75313 6.44906L2.91633 7.84219C2.67117 8.02805 2.35008 7.73438 2.51531 7.47492L4.22625 4.76625C4.29084 4.66437 4.37577 4.57693 4.47574 4.50942C4.57571 4.44191 4.68855 4.39578 4.80718 4.37393C4.92581 4.35208 5.04768 4.35497 5.16514 4.38244C5.2826 4.4099 5.39312 4.46133 5.48977 4.53352L6.85055 5.55211C6.9114 5.59775 6.98542 5.62242 7.06148 5.62242C7.13755 5.62242 7.21157 5.59775 7.27242 5.55211L9.11016 4.16039C9.35484 3.97336 9.67594 4.2668 9.5107 4.52648Z" fill="#555B6E"/>
</svg>
